<?xml version="1.0" encoding="UTF-8" standalone="no"?>
<!DOCTYPE svg PUBLIC "-//W3C//DTD SVG 1.1//EN"
 "http://www.w3.org/Graphics/SVG/1.1/DTD/svg11.dtd">
<!-- Generated by graphviz version 12.2.1 (20241206.2353)
 -->
<!-- Pages: 1 -->
<svg width="263pt" height="764pt"
 viewBox="0.00 0.00 263.00 764.00" xmlns="http://www.w3.org/2000/svg" xmlns:xlink="http://www.w3.org/1999/xlink">
<g id="graph0" class="graph" transform="scale(1 1) rotate(0) translate(4 760)">
<polygon fill="white" stroke="none" points="-4,4 -4,-760 259,-760 259,4 -4,4"/>
<!-- 0 -->
<g id="node1" class="node">
<title>0</title>
<ellipse fill="none" stroke="black" cx="27" cy="-738" rx="27" ry="18"/>
<text text-anchor="middle" x="27" y="-732.95" font-family="Times,serif" font-size="14.00">0</text>
</g>
<!-- 8 -->
<g id="node2" class="node">
<title>8</title>
<ellipse fill="none" stroke="black" cx="74" cy="-90" rx="27" ry="18"/>
<text text-anchor="middle" x="74" y="-84.95" font-family="Times,serif" font-size="14.00">8</text>
</g>
<!-- 0&#45;&gt;8 -->
<g id="edge1" class="edge">
<title>0&#45;&gt;8</title>
<path fill="none" stroke="black" d="M21.67,-720.15C13.8,-693.75 0,-640.92 0,-595 0,-595 0,-595 0,-233 0,-187 30.92,-141.13 52.79,-114.45"/>
<polygon fill="black" stroke="black" points="55.31,-116.89 59.1,-107 49.97,-112.36 55.31,-116.89"/>
</g>
<!-- 1 -->
<g id="node3" class="node">
<title>1</title>
<ellipse fill="none" stroke="black" cx="55" cy="-666" rx="27" ry="18"/>
<text text-anchor="middle" x="55" y="-660.95" font-family="Times,serif" font-size="14.00">1</text>
</g>
<!-- 0&#45;&gt;1 -->
<g id="edge2" class="edge">
<title>0&#45;&gt;1</title>
<path fill="none" stroke="black" d="M33.64,-720.41C36.77,-712.57 40.6,-702.99 44.15,-694.13"/>
<polygon fill="black" stroke="black" points="47.39,-695.46 47.85,-684.88 40.89,-692.86 47.39,-695.46"/>
</g>
<!-- 9 -->
<g id="node11" class="node">
<title>9</title>
<ellipse fill="none" stroke="black" cx="173" cy="-18" rx="27" ry="18"/>
<text text-anchor="middle" x="173" y="-12.95" font-family="Times,serif" font-size="14.00">9</text>
</g>
<!-- 8&#45;&gt;9 -->
<g id="edge14" class="edge">
<title>8&#45;&gt;9</title>
<path fill="none" stroke="black" d="M92.16,-76.16C107.23,-65.5 128.89,-50.19 145.99,-38.1"/>
<polygon fill="black" stroke="black" points="147.58,-41.26 153.72,-32.63 143.54,-35.55 147.58,-41.26"/>
</g>
<!-- 10 -->
<g id="node4" class="node">
<title>10</title>
<ellipse fill="none" stroke="black" cx="110" cy="-594" rx="27" ry="18"/>
<text text-anchor="middle" x="110" y="-588.95" font-family="Times,serif" font-size="14.00">10</text>
</g>
<!-- 1&#45;&gt;10 -->
<g id="edge3" class="edge">
<title>1&#45;&gt;10</title>
<path fill="none" stroke="black" d="M67.21,-649.46C74.11,-640.67 82.91,-629.48 90.73,-619.53"/>
<polygon fill="black" stroke="black" points="93.47,-621.71 96.89,-611.68 87.96,-617.38 93.47,-621.71"/>
</g>
<!-- 2 -->
<g id="node5" class="node">
<title>2</title>
<ellipse fill="none" stroke="black" cx="55" cy="-450" rx="27" ry="18"/>
<text text-anchor="middle" x="55" y="-444.95" font-family="Times,serif" font-size="14.00">2</text>
</g>
<!-- 1&#45;&gt;2 -->
<g id="edge4" class="edge">
<title>1&#45;&gt;2</title>
<path fill="none" stroke="black" d="M55,-647.85C55,-611.14 55,-524.66 55,-479.53"/>
<polygon fill="black" stroke="black" points="58.5,-479.75 55,-469.75 51.5,-479.75 58.5,-479.75"/>
</g>
<!-- 15 -->
<g id="node13" class="node">
<title>15</title>
<ellipse fill="none" stroke="black" cx="110" cy="-522" rx="27" ry="18"/>
<text text-anchor="middle" x="110" y="-516.95" font-family="Times,serif" font-size="14.00">15</text>
</g>
<!-- 10&#45;&gt;15 -->
<g id="edge15" class="edge">
<title>10&#45;&gt;15</title>
<path fill="none" stroke="black" d="M110,-575.7C110,-568.41 110,-559.73 110,-551.54"/>
<polygon fill="black" stroke="black" points="113.5,-551.62 110,-541.62 106.5,-551.62 113.5,-551.62"/>
</g>
<!-- 11 -->
<g id="node14" class="node">
<title>11</title>
<ellipse fill="none" stroke="black" cx="182" cy="-522" rx="27" ry="18"/>
<text text-anchor="middle" x="182" y="-516.95" font-family="Times,serif" font-size="14.00">11</text>
</g>
<!-- 10&#45;&gt;11 -->
<g id="edge16" class="edge">
<title>10&#45;&gt;11</title>
<path fill="none" stroke="black" d="M124.92,-578.5C134.77,-568.92 147.86,-556.19 159.03,-545.34"/>
<polygon fill="black" stroke="black" points="161.29,-548.02 166.02,-538.54 156.41,-543 161.29,-548.02"/>
</g>
<!-- 2&#45;&gt;8 -->
<g id="edge5" class="edge">
<title>2&#45;&gt;8</title>
<path fill="none" stroke="black" d="M53.22,-431.97C50.6,-405.34 46,-352.21 46,-307 46,-307 46,-307 46,-233 46,-192.59 57.05,-146.9 65.27,-118.52"/>
<polygon fill="black" stroke="black" points="68.52,-119.87 68.03,-109.29 61.81,-117.86 68.52,-119.87"/>
</g>
<!-- 3 -->
<g id="node6" class="node">
<title>3</title>
<ellipse fill="none" stroke="black" cx="141" cy="-378" rx="27" ry="18"/>
<text text-anchor="middle" x="141" y="-372.95" font-family="Times,serif" font-size="14.00">3</text>
</g>
<!-- 2&#45;&gt;3 -->
<g id="edge6" class="edge">
<title>2&#45;&gt;3</title>
<path fill="none" stroke="black" d="M71.58,-435.5C84.07,-425.34 101.42,-411.21 115.65,-399.63"/>
<polygon fill="black" stroke="black" points="117.75,-402.44 123.3,-393.41 113.33,-397.01 117.75,-402.44"/>
</g>
<!-- 13 -->
<g id="node7" class="node">
<title>13</title>
<ellipse fill="none" stroke="black" cx="173" cy="-234" rx="27" ry="18"/>
<text text-anchor="middle" x="173" y="-228.95" font-family="Times,serif" font-size="14.00">13</text>
</g>
<!-- 3&#45;&gt;13 -->
<g id="edge7" class="edge">
<title>3&#45;&gt;13</title>
<path fill="none" stroke="black" d="M145.35,-359.85C147.94,-349.48 151.25,-336 154,-324 158.65,-303.73 163.54,-280.78 167.2,-263.26"/>
<polygon fill="black" stroke="black" points="170.6,-264.08 169.2,-253.58 163.74,-262.66 170.6,-264.08"/>
</g>
<!-- 4 -->
<g id="node8" class="node">
<title>4</title>
<ellipse fill="none" stroke="black" cx="118" cy="-306" rx="27" ry="18"/>
<text text-anchor="middle" x="118" y="-300.95" font-family="Times,serif" font-size="14.00">4</text>
</g>
<!-- 3&#45;&gt;4 -->
<g id="edge8" class="edge">
<title>3&#45;&gt;4</title>
<path fill="none" stroke="black" d="M135.43,-360.05C132.92,-352.4 129.88,-343.16 127.05,-334.56"/>
<polygon fill="black" stroke="black" points="130.44,-333.63 123.99,-325.23 123.79,-335.82 130.44,-333.63"/>
</g>
<!-- 7 -->
<g id="node12" class="node">
<title>7</title>
<ellipse fill="none" stroke="black" cx="101" cy="-162" rx="27" ry="18"/>
<text text-anchor="middle" x="101" y="-156.95" font-family="Times,serif" font-size="14.00">7</text>
</g>
<!-- 13&#45;&gt;7 -->
<g id="edge20" class="edge">
<title>13&#45;&gt;7</title>
<path fill="none" stroke="black" d="M158.08,-218.5C148.23,-208.92 135.14,-196.19 123.97,-185.34"/>
<polygon fill="black" stroke="black" points="126.59,-183 116.98,-178.54 121.71,-188.02 126.59,-183"/>
</g>
<!-- 14 -->
<g id="node16" class="node">
<title>14</title>
<ellipse fill="none" stroke="black" cx="173" cy="-162" rx="27" ry="18"/>
<text text-anchor="middle" x="173" y="-156.95" font-family="Times,serif" font-size="14.00">14</text>
</g>
<!-- 13&#45;&gt;14 -->
<g id="edge21" class="edge">
<title>13&#45;&gt;14</title>
<path fill="none" stroke="black" d="M173,-215.7C173,-208.41 173,-199.73 173,-191.54"/>
<polygon fill="black" stroke="black" points="176.5,-191.62 173,-181.62 169.5,-191.62 176.5,-191.62"/>
</g>
<!-- 6 -->
<g id="node9" class="node">
<title>6</title>
<ellipse fill="none" stroke="black" cx="101" cy="-234" rx="27" ry="18"/>
<text text-anchor="middle" x="101" y="-228.95" font-family="Times,serif" font-size="14.00">6</text>
</g>
<!-- 4&#45;&gt;6 -->
<g id="edge9" class="edge">
<title>4&#45;&gt;6</title>
<path fill="none" stroke="black" d="M113.88,-288.05C112.07,-280.6 109.9,-271.64 107.85,-263.22"/>
<polygon fill="black" stroke="black" points="111.31,-262.64 105.55,-253.75 104.51,-264.29 111.31,-262.64"/>
</g>
<!-- 5 -->
<g id="node10" class="node">
<title>5</title>
<ellipse fill="none" stroke="black" cx="228" cy="-90" rx="27" ry="18"/>
<text text-anchor="middle" x="228" y="-84.95" font-family="Times,serif" font-size="14.00">5</text>
</g>
<!-- 4&#45;&gt;5 -->
<g id="edge10" class="edge">
<title>4&#45;&gt;5</title>
<path fill="none" stroke="black" d="M142.47,-297.68C163.77,-289.94 193.56,-275.54 209,-252 235.37,-211.79 235,-153.54 231.84,-119.24"/>
<polygon fill="black" stroke="black" points="235.37,-119.24 230.81,-109.68 228.41,-120 235.37,-119.24"/>
</g>
<!-- 6&#45;&gt;7 -->
<g id="edge12" class="edge">
<title>6&#45;&gt;7</title>
<path fill="none" stroke="black" d="M101,-215.7C101,-208.41 101,-199.73 101,-191.54"/>
<polygon fill="black" stroke="black" points="104.5,-191.62 101,-181.62 97.5,-191.62 104.5,-191.62"/>
</g>
<!-- 5&#45;&gt;9 -->
<g id="edge11" class="edge">
<title>5&#45;&gt;9</title>
<path fill="none" stroke="black" d="M215.79,-73.46C208.89,-64.67 200.09,-53.48 192.27,-43.53"/>
<polygon fill="black" stroke="black" points="195.04,-41.38 186.11,-35.68 189.53,-45.71 195.04,-41.38"/>
</g>
<!-- 7&#45;&gt;8 -->
<g id="edge13" class="edge">
<title>7&#45;&gt;8</title>
<path fill="none" stroke="black" d="M94.46,-144.05C91.48,-136.32 87.87,-126.96 84.52,-118.27"/>
<polygon fill="black" stroke="black" points="87.88,-117.27 81.02,-109.2 81.35,-119.79 87.88,-117.27"/>
</g>
<!-- 15&#45;&gt;3 -->
<g id="edge23" class="edge">
<title>15&#45;&gt;3</title>
<path fill="none" stroke="black" d="M113.58,-503.92C117.35,-486 123.5,-457 129,-432 130.77,-423.95 132.73,-415.23 134.54,-407.22"/>
<polygon fill="black" stroke="black" points="137.91,-408.18 136.72,-397.65 131.09,-406.62 137.91,-408.18"/>
</g>
<!-- 11&#45;&gt;3 -->
<g id="edge17" class="edge">
<title>11&#45;&gt;3</title>
<path fill="none" stroke="black" d="M191.23,-504.93C200.46,-486.6 211.85,-456.05 201,-432 194.6,-417.8 182.31,-405.88 170.51,-396.96"/>
<polygon fill="black" stroke="black" points="172.7,-394.23 162.51,-391.34 168.68,-399.95 172.7,-394.23"/>
</g>
<!-- 12 -->
<g id="node15" class="node">
<title>12</title>
<ellipse fill="none" stroke="black" cx="165" cy="-450" rx="27" ry="18"/>
<text text-anchor="middle" x="165" y="-444.95" font-family="Times,serif" font-size="14.00">12</text>
</g>
<!-- 11&#45;&gt;12 -->
<g id="edge18" class="edge">
<title>11&#45;&gt;12</title>
<path fill="none" stroke="black" d="M177.88,-504.05C176.07,-496.6 173.9,-487.64 171.85,-479.22"/>
<polygon fill="black" stroke="black" points="175.31,-478.64 169.55,-469.75 168.51,-480.29 175.31,-478.64"/>
</g>
<!-- 12&#45;&gt;3 -->
<g id="edge19" class="edge">
<title>12&#45;&gt;3</title>
<path fill="none" stroke="black" d="M159.19,-432.05C156.57,-424.4 153.4,-415.16 150.45,-406.56"/>
<polygon fill="black" stroke="black" points="153.8,-405.55 147.25,-397.22 147.18,-407.82 153.8,-405.55"/>
</g>
<!-- 14&#45;&gt;9 -->
<g id="edge22" class="edge">
<title>14&#45;&gt;9</title>
<path fill="none" stroke="black" d="M173,-143.59C173,-119.61 173,-76.14 173,-47.42"/>
<polygon fill="black" stroke="black" points="176.5,-47.62 173,-37.62 169.5,-47.62 176.5,-47.62"/>
</g>
</g>
</svg>
